<?xml version="1.0" encoding="utf-8"?>
<!-- Generator: Adobe Illustrator 17.0.0, SVG Export Plug-In . SVG Version: 6.00 Build 0)  -->
<!DOCTYPE svg PUBLIC "-//W3C//DTD SVG 1.1//EN" "http://www.w3.org/Graphics/SVG/1.1/DTD/svg11.dtd">
<svg version="1.1" id="图层_1" xmlns="http://www.w3.org/2000/svg" xmlns:xlink="http://www.w3.org/1999/xlink" x="0px" y="0px"
	 width="272.5px" height="106px" viewBox="0 204.5 272.5 106" enable-background="new 0 204.5 272.5 106" xml:space="preserve">
<g enable-background="new    ">
	<path d="M53.271,283.739H21.083v-55.681h7.769v48.466h24.418L53.271,283.739L53.271,283.739z"/>
	<path d="M78.149,284.942h-3.7l-17.111-40.974l7.399-1.758l11.561,27.748l11.562-27.748l7.584,1.758L78.149,284.942z"/>
	<path d="M154.639,256.639c0,17.943-10.729,28.303-26.175,28.303c-16.926,0-28.487-11.007-28.487-28.395
		c0-16.186,11.006-28.488,28.765-28.488c9.712,0,17.758,3.7,22.753,8.787l-4.44,5.827c-4.347-4.347-10.452-7.492-18.314-7.492
		c-13.134,0-20.811,9.064-20.811,21.459c0,12.394,8.047,21.181,20.626,21.181c9.342,0,16.094-5.272,17.851-14.336h-22.476v-6.844
		H154.639L154.639,256.639z"/>
	<path d="M183.032,284.942c-12.302,0-21.736-8.972-21.736-21.273c0-11.377,8.602-21.459,21.736-21.459
		c12.487,0,21.921,9.249,21.921,21.459C204.953,276.617,195.426,284.942,183.032,284.942z M183.032,249.24
		c-8.324,0-13.966,6.567-13.966,14.429c0,8.324,6.197,14.244,13.966,14.244c7.954,0,14.151-5.92,14.151-14.244
		C197.183,255.344,190.986,249.24,183.032,249.24z"/>
	<path d="M245.832,284.479v-5.734c-3.515,3.792-7.954,6.197-14.429,6.197c-11.747,0-20.348-8.509-20.348-21.273
		c0-12.024,8.417-21.459,20.534-21.459c6.197,0,10.636,1.942,14.244,5.642v-19.793h7.584v56.42H245.832L245.832,284.479z
		 M232.236,249.24c-7.955,0-13.411,6.105-13.411,14.429c0,8.416,5.735,14.244,13.411,14.244c8.416,0,14.521-5.365,14.521-14.151
		C246.757,254.697,240.745,249.24,232.236,249.24z"/>
</g>
</svg>
