<?xml version="1.0" encoding="utf-8"?>
<!-- Generator: Adobe Illustrator 17.0.0, SVG Export Plug-In . SVG Version: 6.00 Build 0)  -->
<!DOCTYPE svg PUBLIC "-//W3C//DTD SVG 1.1//EN" "http://www.w3.org/Graphics/SVG/1.1/DTD/svg11.dtd">
<svg version="1.1" id="图层_1" xmlns="http://www.w3.org/2000/svg" xmlns:xlink="http://www.w3.org/1999/xlink" x="0px" y="0px"
	 width="62.125px" height="17.75px" viewBox="0 0 62.125 17.75" enable-background="new 0 0 62.125 17.75" xml:space="preserve">
<g enable-background="new    ">
	<path d="M10.12,15.871H2V1.825h1.96v12.226h6.16L10.12,15.871L10.12,15.871z"/>
	<path d="M16.395,16.175h-0.933L11.146,5.839l1.867-0.443l2.917,7l2.917-7l1.913,0.443L16.395,16.175z"/>
	<path d="M35.69,9.035c0,4.526-2.707,7.14-6.603,7.14c-4.27,0-7.186-2.777-7.186-7.163c0-4.083,2.777-7.186,7.256-7.186
		c2.45,0,4.48,0.933,5.74,2.217l-1.12,1.47c-1.097-1.097-2.637-1.89-4.62-1.89c-3.313,0-5.25,2.287-5.25,5.413
		s2.03,5.343,5.203,5.343c2.357,0,4.06-1.33,4.503-3.616h-5.67V9.035L35.69,9.035L35.69,9.035z"/>
	<path d="M42.853,16.175c-3.103,0-5.483-2.263-5.483-5.366c0-2.87,2.17-5.413,5.483-5.413c3.15,0,5.53,2.333,5.53,5.413
		C48.383,14.074,45.979,16.175,42.853,16.175z M42.853,7.169c-2.1,0-3.523,1.657-3.523,3.64c0,2.1,1.563,3.593,3.523,3.593
		c2.007,0,3.57-1.493,3.57-3.593C46.423,8.708,44.859,7.169,42.853,7.169z"/>
	<path d="M58.695,16.058v-1.447c-0.887,0.957-2.007,1.563-3.64,1.563c-2.963,0-5.133-2.147-5.133-5.366
		c0-3.033,2.123-5.413,5.18-5.413c1.563,0,2.683,0.49,3.593,1.423V1.825h1.913v14.233H58.695L58.695,16.058z M55.265,7.169
		c-2.007,0-3.383,1.54-3.383,3.64c0,2.123,1.447,3.593,3.383,3.593c2.123,0,3.663-1.353,3.663-3.57
		C58.928,8.545,57.412,7.169,55.265,7.169z"/>
</g>
</svg>
