<?xml version="1.0" encoding="utf-8"?>
<!-- Generator: Adobe Illustrator 17.0.0, SVG Export Plug-In . SVG Version: 6.00 Build 0)  -->
<!DOCTYPE svg PUBLIC "-//W3C//DTD SVG 1.1//EN" "http://www.w3.org/Graphics/SVG/1.1/DTD/svg11.dtd">
<svg version="1.1" id="图层_1" xmlns="http://www.w3.org/2000/svg" xmlns:xlink="http://www.w3.org/1999/xlink" x="0px" y="0px"
	 width="57.063px" height="15.458px" viewBox="0 0 57.063 15.458" enable-background="new 0 0 57.063 15.458" xml:space="preserve">
<g enable-background="new    ">
	<path d="M8.63,14.198H1V1h1.842v11.488H8.63V14.198L8.63,14.198z"/>
	<path d="M14.526,14.484h-0.877L9.594,4.772l1.754-0.416l2.741,6.578l2.741-6.578l1.798,0.416L14.526,14.484z"/>
	<path d="M32.657,7.775c0,4.253-2.544,6.709-6.204,6.709c-4.012,0-6.752-2.609-6.752-6.731c0-3.837,2.609-6.752,6.818-6.752
		c2.302,0,4.21,0.877,5.394,2.083l-1.052,1.381c-1.031-1.031-2.478-1.776-4.341-1.776c-3.113,0-4.933,2.149-4.933,5.086
		s1.907,5.021,4.889,5.021c2.215,0,3.815-1.25,4.231-3.398h-5.328V7.775H32.657L32.657,7.775z"/>
	<path d="M39.387,14.484c-2.916,0-5.152-2.126-5.152-5.042c0-2.697,2.039-5.086,5.152-5.086c2.96,0,5.196,2.192,5.196,5.086
		C44.583,12.51,42.325,14.484,39.387,14.484z M39.387,6.021c-1.973,0-3.31,1.557-3.31,3.42c0,1.973,1.469,3.376,3.31,3.376
		c1.886,0,3.355-1.403,3.355-3.376C42.742,7.468,41.272,6.021,39.387,6.021z"/>
	<path d="M54.273,14.374v-1.36c-0.833,0.899-1.886,1.469-3.42,1.469c-2.784,0-4.823-2.017-4.823-5.042
		c0-2.85,1.995-5.086,4.867-5.086c1.469,0,2.521,0.46,3.376,1.337V1h1.798v13.374H54.273L54.273,14.374z M51.05,6.021
		c-1.886,0-3.179,1.447-3.179,3.42c0,1.995,1.36,3.376,3.179,3.376c1.995,0,3.442-1.271,3.442-3.355
		C54.492,7.314,53.068,6.021,51.05,6.021z"/>
</g>
</svg>
