<?xml version="1.0" encoding="utf-8"?>
<!-- Generator: Adobe Illustrator 17.0.0, SVG Export Plug-In . SVG Version: 6.00 Build 0)  -->
<!DOCTYPE svg PUBLIC "-//W3C//DTD SVG 1.1//EN" "http://www.w3.org/Graphics/SVG/1.1/DTD/svg11.dtd">
<svg version="1.1" id="图层_1" xmlns="http://www.w3.org/2000/svg" xmlns:xlink="http://www.w3.org/1999/xlink" x="0px" y="0px"
	 width="800px" height="600px" viewBox="0 0 800 600" enable-background="new 0 0 800 600" xml:space="preserve">
<g enable-background="new    ">
	<path d="M130.527,413.302H27.167V234.5h24.949v155.635h78.411V413.302z"/>
	<path d="M210.417,417.163h-11.88L143.59,285.586l23.761-5.644l37.126,89.104l37.127-89.104l24.355,5.644L210.417,417.163z"/>
	<path d="M456.043,326.277c0,57.62-34.454,90.886-84.055,90.886c-54.353,0-91.479-35.345-91.479-91.183
		c0-51.978,35.344-91.481,92.371-91.481c31.187,0,57.026,11.881,73.065,28.217l-14.257,18.712
		c-13.96-13.96-33.563-24.059-58.809-24.059c-42.176,0-66.828,29.107-66.828,68.908c0,39.8,25.84,68.016,66.234,68.016
		c29.998,0,51.68-16.93,57.323-46.037h-72.174v-21.979H456.043z"/>
	<path d="M547.218,417.163c-39.503,0-69.798-28.811-69.798-68.313c0-36.533,27.622-68.908,69.798-68.908
		c40.097,0,70.392,29.702,70.392,68.908C617.609,390.432,587.018,417.163,547.218,417.163z M547.218,302.517
		c-26.731,0-44.849,21.088-44.849,46.334c0,26.73,19.899,45.739,44.849,45.739c25.543,0,45.442-19.009,45.442-45.739
		C592.66,322.119,572.761,302.517,547.218,302.517z"/>
	<path d="M748.882,415.678v-18.414c-11.286,12.177-25.543,19.899-46.334,19.899c-37.721,0-65.343-27.325-65.343-68.313
		c0-38.612,27.028-68.908,65.938-68.908c19.899,0,34.156,6.237,45.739,18.118V234.5h24.355v181.178H748.882z M705.222,302.517
		c-25.544,0-43.067,19.603-43.067,46.334c0,27.027,18.415,45.739,43.067,45.739c27.027,0,46.631-17.227,46.631-45.442
		C751.853,320.04,732.547,302.517,705.222,302.517z"/>
</g>
</svg>
