<?xml version="1.0" encoding="utf-8"?>
<!-- Generator: Adobe Illustrator 17.0.0, SVG Export Plug-In . SVG Version: 6.00 Build 0)  -->
<!DOCTYPE svg PUBLIC "-//W3C//DTD SVG 1.1//EN" "http://www.w3.org/Graphics/SVG/1.1/DTD/svg11.dtd">
<svg version="1.1" id="图层_1" xmlns="http://www.w3.org/2000/svg" xmlns:xlink="http://www.w3.org/1999/xlink" x="0px" y="0px"
	 width="131.75px" height="45.5px" viewBox="0 0 131.75 45.5" enable-background="new 0 0 131.75 45.5" xml:space="preserve">
<g enable-background="new    ">
	<path d="M23.356,36.294H7V8h3.948v24.628h12.408L23.356,36.294L23.356,36.294z"/>
	<path d="M35.998,36.906h-1.88l-8.695-20.821l3.76-0.893l5.875,14.1l5.875-14.1l3.854,0.893L35.998,36.906z"/>
	<path d="M74.866,22.523c0,9.118-5.452,14.382-13.301,14.382c-8.601,0-14.476-5.593-14.476-14.429
		c0-8.225,5.593-14.476,14.617-14.476c4.935,0,9.024,1.88,11.562,4.465l-2.256,2.961c-2.209-2.209-5.311-3.807-9.306-3.807
		c-6.674,0-10.575,4.606-10.575,10.904c0,6.298,4.089,10.763,10.481,10.763c4.747,0,8.178-2.679,9.071-7.285H59.262v-3.478h15.604
		V22.523z"/>
	<path d="M89.294,36.906c-6.251,0-11.045-4.559-11.045-10.81c0-5.781,4.371-10.904,11.045-10.904c6.345,0,11.139,4.7,11.139,10.904
		C100.433,32.675,95.592,36.906,89.294,36.906z M89.294,18.764c-4.23,0-7.097,3.337-7.097,7.332c0,4.23,3.149,7.238,7.097,7.238
		c4.042,0,7.191-3.008,7.191-7.238C96.485,21.865,93.336,18.764,89.294,18.764z"/>
	<path d="M121.206,36.67v-2.914c-1.786,1.927-4.042,3.149-7.332,3.149c-5.969,0-10.34-4.324-10.34-10.81
		c0-6.11,4.277-10.904,10.434-10.904c3.149,0,5.405,0.987,7.238,2.867V8h3.854v28.67L121.206,36.67L121.206,36.67z M114.297,18.764
		c-4.042,0-6.815,3.102-6.815,7.332c0,4.277,2.914,7.238,6.815,7.238c4.277,0,7.379-2.726,7.379-7.191
		C121.676,21.537,118.621,18.764,114.297,18.764z"/>
</g>
</svg>
